<svg xmlns="http://www.w3.org/2000/svg" width="64" height="64" shape-rendering="geometricPrecision" text-rendering="geometricPrecision" image-rendering="optimizeQuality" fill-rule="evenodd" clip-rule="evenodd" viewBox="0 0 640 640"><path d="M579.999 0H60C27 0 0 27 0 60v520c0 33 27 60 60 60h519.999c33 0 60-27 60-60V60c0-33-27-60-60-60zM360.004 239.991c0 22.004-18.012 40.004-40.004 40.004h-80.01c-21.992 0-40.004-18-40.004-40.004 0-21.992 18.012-40.004 40.005-40.004H320c21.992 0 40.004 18.012 40.004 40.004zm80.009 160.018c0 21.992-18.012 40.004-40.004 40.004H239.99c-21.993 0-40.005-18.012-40.005-40.004 0-22.004 18.012-40.004 40.005-40.004h160.018c21.992 0 40.004 18 40.004 40.004zm119.99 4.984c0 85.643-69.639 155.01-155.884 155.01h-167.99c-86.233 0-156.132-69.367-156.132-155.01V234.995c0-85.654 69.875-155.01 156.132-155.01l78.627.012c86.233 0 155.234 64.36 155.234 150.002 1.11 15.992 15.65 30 31.996 30h26.906c17.233 0 31.004 18.119 31.004 35.233v109.761h.107z"/></svg>