<svg width="731" height="831" xmlns="http://www.w3.org/2000/svg" xmlns:xlink="http://www.w3.org/1999/xlink" xml:space="preserve" overflow="hidden"><defs><clipPath id="clip0"><rect x="199" y="1553" width="731" height="831"/></clipPath><clipPath id="clip1"><rect x="199" y="1553" width="725" height="724"/></clipPath><clipPath id="clip2"><rect x="199" y="1553" width="726" height="724"/></clipPath><clipPath id="clip3"><rect x="199" y="1553" width="726" height="724"/></clipPath><clipPath id="clip4"><rect x="526" y="1982" width="404" height="402"/></clipPath><clipPath id="clip5"><rect x="526" y="1982" width="404" height="402"/></clipPath><clipPath id="clip6"><rect x="526" y="1982" width="404" height="402"/></clipPath></defs><g clip-path="url(#clip0)" transform="translate(-199 -1553)"><g clip-path="url(#clip1)"><g clip-path="url(#clip2)"><g clip-path="url(#clip3)"><path d="M173.458 618.417 173.458 105.583 362 105.583 362 263.958 550.542 263.958 550.542 618.417 173.458 618.417ZM407.25 124.437 501.521 218.708 407.25 218.708 407.25 124.437ZM407.25 60.3333 128.208 60.3333 128.208 663.667 595.792 663.667 595.792 226.25 407.25 60.3333Z" transform="matrix(1.00138 0 0 1 199 1553)"/><path d="M218.708 339.375 505.292 339.375 505.292 369.542 218.708 369.542Z" transform="matrix(1.00138 0 0 1 199 1553)"/><path d="M218.708 279.042 316.75 279.042 316.75 309.208 218.708 309.208Z" transform="matrix(1.00138 0 0 1 199 1553)"/><path d="M218.708 399.708 505.292 399.708 505.292 429.875 218.708 429.875Z" transform="matrix(1.00138 0 0 1 199 1553)"/><path d="M218.708 460.042 505.292 460.042 505.292 490.208 218.708 490.208Z" transform="matrix(1.00138 0 0 1 199 1553)"/><path d="M218.708 520.375 505.292 520.375 505.292 550.542 218.708 550.542Z" transform="matrix(1.00138 0 0 1 199 1553)"/></g></g></g><path d="M535.5 2143C535.5 2062.64 602.433 1997.5 685 1997.5 767.567 1997.5 834.5 2062.64 834.5 2143 834.5 2223.36 767.567 2288.5 685 2288.5 602.433 2288.5 535.5 2223.36 535.5 2143Z" stroke="#FFFFFF" stroke-width="4.58333" stroke-miterlimit="8" fill="#FFFFFF" fill-rule="evenodd"/><g clip-path="url(#clip4)"><g clip-path="url(#clip5)"><g clip-path="url(#clip6)"><path d="M358.031 316.575 305.687 264.231C298.569 257.112 288.937 254.6 279.725 256.275L261.3 237.85C277.631 216.912 287.262 190.112 287.262 161.637 287.262 92.5437 230.731 36.0125 161.637 36.0125 92.5437 36.0125 36.0125 92.5437 36.0125 161.637 36.0125 230.731 92.5437 287.262 161.637 287.262 190.112 287.262 216.494 277.631 237.85 261.3L256.275 279.725C254.6 288.937 257.112 298.569 264.231 305.687L316.575 358.031C322.437 363.894 329.975 366.825 337.512 366.825 345.05 366.825 352.587 363.894 358.45 358.031 369.337 346.306 369.337 327.881 358.031 316.575ZM161.219 261.719C105.944 261.719 60.7187 216.494 60.7187 161.219 60.7187 105.944 105.944 60.7187 161.219 60.7187 216.494 60.7187 261.719 105.944 261.719 161.219 261.719 216.494 216.494 261.719 161.219 261.719Z" transform="matrix(1.00249 0 0 1 527 1982)"/></g></g></g></g></svg>